<svg width="32" height="32" viewBox="0 0 32 32" fill="none" xmlns="http://www.w3.org/2000/svg">
<path d="M9.6665 10.6667C9.6665 10.2246 9.8421 9.80072 10.1547 9.48816C10.4672 9.17559 10.8911 9 11.3332 9C11.7752 9 12.1991 9.17559 12.5117 9.48816C12.8242 9.80072 12.9998 10.2246 12.9998 10.6667C12.9998 11.1087 12.8242 11.5326 12.5117 11.8452C12.1991 12.1577 11.7752 12.3333 11.3332 12.3333C10.8911 12.3333 10.4672 12.1577 10.1547 11.8452C9.8421 11.5326 9.6665 11.1087 9.6665 10.6667Z" fill="#73726D"/>
<path d="M12.4893 3H19.5107C20.9667 3 22.1213 3 23.0507 3.076C24.0027 3.15333 24.8067 3.316 25.5427 3.68933C26.7342 4.29713 27.7027 5.26656 28.3093 6.45867C28.684 7.192 28.8467 7.99733 28.924 8.94933C29 9.87867 29 11.0333 29 12.4893V19.5107C29 20.9667 29 22.1213 28.924 23.0507C28.8467 24.0027 28.684 24.8067 28.3107 25.5427C27.7032 26.734 26.7343 27.7025 25.5427 28.3093C24.8067 28.684 24.0027 28.8467 23.0507 28.924C22.1213 29 20.9667 29 19.5107 29H12.4893C11.0333 29 9.87867 29 8.94933 28.924C7.99733 28.8467 7.19333 28.684 6.45867 28.3107C5.26685 27.7034 4.29789 26.7345 3.69067 25.5427C3.316 24.8067 3.15333 24.0027 3.07733 23.0507C3 22.1213 3 20.9667 3 19.5107V12.4893C3 11.0333 3 9.87867 3.076 8.94933C3.15333 7.99733 3.316 7.19333 3.68933 6.45867C4.2969 5.26665 5.26636 4.29766 6.45867 3.69067C7.192 3.316 7.99733 3.15333 8.94933 3.076C9.87867 3 11.0333 3 12.4893 3ZM5 18.3373V19.4667C5 20.9773 5 22.0493 5.06933 22.888C5.136 23.7147 5.26533 24.228 5.472 24.6347C5.88741 25.4498 6.55018 26.1126 7.36533 26.528C7.772 26.7347 8.28533 26.8627 9.112 26.9307C9.63067 26.9733 10.2387 26.9893 10.984 26.996C10.9227 25.14 11.2067 23.3827 11.7747 21.7693C10.2813 19.628 7.8 18.248 5 18.3373ZM27.0013 14.2253C19.184 13.568 12.6987 19.3907 12.9867 27H19.4667C20.9773 27 22.0493 27 22.888 26.9307C23.7147 26.864 24.228 26.7347 24.6347 26.528C25.4498 26.1126 26.1126 25.4498 26.528 24.6347C26.7347 24.228 26.8627 23.7147 26.9307 22.888C27 22.048 27 20.976 27 19.4667L27.0013 14.2253ZM7.66667 10.6667C7.66667 11.6391 8.05298 12.5718 8.74061 13.2594C9.42824 13.947 10.3609 14.3333 11.3333 14.3333C12.3058 14.3333 13.2384 13.947 13.9261 13.2594C14.6137 12.5718 15 11.6391 15 10.6667C15 9.69421 14.6137 8.76158 13.9261 8.07394C13.2384 7.38631 12.3058 7 11.3333 7C10.3609 7 9.42824 7.38631 8.74061 8.07394C8.05298 8.76158 7.66667 9.69421 7.66667 10.6667ZM9.66667 10.6667C9.66667 10.2246 9.84226 9.80072 10.1548 9.48816C10.4674 9.17559 10.8913 9 11.3333 9C11.7754 9 12.1993 9.17559 12.5118 9.48816C12.8244 9.80072 13 10.2246 13 10.6667C13 11.1087 12.8244 11.5326 12.5118 11.8452C12.1993 12.1577 11.7754 12.3333 11.3333 12.3333C10.8913 12.3333 10.4674 12.1577 10.1548 11.8452C9.84226 11.5326 9.66667 11.1087 9.66667 10.6667Z" fill="#73726D"/>
</svg>
