<svg width="20" height="20" viewBox="0 0 20 20" fill="none" xmlns="http://www.w3.org/2000/svg">
<path d="M6.49984 1.66663H13.4998C16.1665 1.66663 18.3332 3.83329 18.3332 6.49996V13.5C18.3332 14.7818 17.8239 16.0112 16.9175 16.9176C16.0111 17.8241 14.7817 18.3333 13.4998 18.3333H6.49984C3.83317 18.3333 1.6665 16.1666 1.6665 13.5V6.49996C1.6665 5.21808 2.17573 3.9887 3.08215 3.08228C3.98858 2.17585 5.21796 1.66663 6.49984 1.66663ZM6.33317 3.33329C5.53752 3.33329 4.77446 3.64936 4.21185 4.21197C3.64924 4.77458 3.33317 5.53764 3.33317 6.33329V13.6666C3.33317 15.325 4.67484 16.6666 6.33317 16.6666H13.6665C14.4622 16.6666 15.2252 16.3506 15.7878 15.7879C16.3504 15.2253 16.6665 14.4623 16.6665 13.6666V6.33329C16.6665 4.67496 15.3248 3.33329 13.6665 3.33329H6.33317ZM14.3748 4.58329C14.6511 4.58329 14.9161 4.69304 15.1114 4.88839C15.3068 5.08374 15.4165 5.34869 15.4165 5.62496C15.4165 5.90123 15.3068 6.16618 15.1114 6.36153C14.9161 6.55688 14.6511 6.66663 14.3748 6.66663C14.0986 6.66663 13.8336 6.55688 13.6383 6.36153C13.4429 6.16618 13.3332 5.90123 13.3332 5.62496C13.3332 5.34869 13.4429 5.08374 13.6383 4.88839C13.8336 4.69304 14.0986 4.58329 14.3748 4.58329ZM9.99984 5.83329C11.1049 5.83329 12.1647 6.27228 12.9461 7.05368C13.7275 7.83508 14.1665 8.89489 14.1665 9.99996C14.1665 11.105 13.7275 12.1648 12.9461 12.9462C12.1647 13.7276 11.1049 14.1666 9.99984 14.1666C8.89477 14.1666 7.83496 13.7276 7.05356 12.9462C6.27216 12.1648 5.83317 11.105 5.83317 9.99996C5.83317 8.89489 6.27216 7.83508 7.05356 7.05368C7.83496 6.27228 8.89477 5.83329 9.99984 5.83329ZM9.99984 7.49996C9.3368 7.49996 8.70091 7.76335 8.23207 8.23219C7.76323 8.70103 7.49984 9.33692 7.49984 9.99996C7.49984 10.663 7.76323 11.2989 8.23207 11.7677C8.70091 12.2366 9.3368 12.5 9.99984 12.5C10.6629 12.5 11.2988 12.2366 11.7676 11.7677C12.2364 11.2989 12.4998 10.663 12.4998 9.99996C12.4998 9.33692 12.2364 8.70103 11.7676 8.23219C11.2988 7.76335 10.6629 7.49996 9.99984 7.49996Z" fill="#1F1F1F"/>
</svg>
