<svg width="24" height="24" viewBox="0 0 24 24" fill="none" xmlns="http://www.w3.org/2000/svg">
<path d="M22.501 6H19.426C19.051 4.275 17.551 3 15.751 3C13.951 3 12.451 4.275 12.076 6H1.50098V7.5H12.076C12.451 9.225 13.951 10.5 15.751 10.5C17.551 10.5 19.051 9.225 19.426 7.5H22.501V6ZM15.751 9C14.476 9 13.501 8.025 13.501 6.75C13.501 5.475 14.476 4.5 15.751 4.5C17.026 4.5 18.001 5.475 18.001 6.75C18.001 8.025 17.026 9 15.751 9ZM1.50098 18H4.57598C4.95098 19.725 6.45098 21 8.25098 21C10.051 21 11.551 19.725 11.926 18H22.501V16.5H11.926C11.551 14.775 10.051 13.5 8.25098 13.5C6.45098 13.5 4.95098 14.775 4.57598 16.5H1.50098V18ZM8.25098 15C9.52598 15 10.501 15.975 10.501 17.25C10.501 18.525 9.52598 19.5 8.25098 19.5C6.97598 19.5 6.00098 18.525 6.00098 17.25C6.00098 15.975 6.97598 15 8.25098 15Z" fill="#1F1F1F"/>
</svg>
