<svg width="24" height="24" viewBox="0 0 24 24" fill="none" xmlns="http://www.w3.org/2000/svg">
<path d="M8.19766 14.745C8.43195 14.9122 8.71262 15.0019 9.0004 15.0016C9.28819 15.0013 9.5687 14.9111 9.80266 14.7435C10.0365 14.5687 10.2143 14.3294 10.3142 14.055L10.8347 12.4545C10.9595 12.0775 11.1707 11.7348 11.4515 11.4538C11.7322 11.1728 12.0747 10.9612 12.4517 10.836L14.0807 10.3065C14.3538 10.2085 14.5893 10.0272 14.7538 9.78808C14.9183 9.54898 15.0035 9.26422 14.9974 8.97406C14.9913 8.6839 14.8941 8.403 14.7197 8.17106C14.5452 7.93913 14.3022 7.76788 14.0252 7.68153L12.4217 7.16253C12.0443 7.03788 11.7013 6.82676 11.42 6.54601C11.1388 6.26526 10.927 5.92265 10.8017 5.54553L10.2722 3.91953C10.1761 3.65102 9.99915 3.41887 9.76572 3.25502C9.5323 3.09117 9.25385 3.00366 8.96866 3.00453C8.67939 3.0033 8.39705 3.093 8.16153 3.26096C7.92602 3.42892 7.74923 3.66664 7.65616 3.94053L7.12217 5.57553C6.99677 5.94147 6.79022 6.27431 6.518 6.54914C6.24577 6.82397 5.9149 7.03366 5.55017 7.16253L3.92417 7.68903C3.65253 7.78502 3.4176 7.96337 3.25213 8.19921C3.08665 8.43505 2.99887 8.71664 3.00102 9.00473C3.00316 9.29282 3.09513 9.57307 3.2641 9.80642C3.43307 10.0398 3.67063 10.2146 3.94367 10.3065L5.54417 10.827C5.92204 10.9533 6.26531 11.1658 6.54676 11.4478C6.82821 11.7298 7.04012 12.0734 7.16566 12.4515L7.69367 14.0715C7.78817 14.3415 7.96516 14.577 8.19916 14.7435M15.8042 20.775C16.0075 20.9196 16.2507 20.9972 16.5002 20.997C16.752 20.9945 16.9969 20.9137 17.2009 20.7659C17.4048 20.6181 17.5578 20.4106 17.6387 20.172L18.0107 19.029C18.0902 18.792 18.2252 18.5745 18.4007 18.3975C18.5762 18.2205 18.7937 18.087 19.0307 18.009L20.1887 17.631C20.4282 17.5489 20.6356 17.3931 20.7812 17.186C20.9268 16.9788 21.0031 16.7309 20.9993 16.4778C20.9955 16.2246 20.9117 15.9791 20.7599 15.7765C20.6081 15.5738 20.396 15.4244 20.1542 15.3495L19.0082 14.976C18.7712 14.8967 18.5559 14.7636 18.3789 14.5871C18.202 14.4107 18.0682 14.1957 17.9882 13.959L17.6102 12.798C17.5288 12.5596 17.3745 12.3528 17.1691 12.207C16.9637 12.0611 16.7176 11.9836 16.4657 11.9854C16.2138 11.9873 15.9689 12.0683 15.7656 12.2171C15.5623 12.3659 15.411 12.5749 15.3332 12.8145L14.9627 13.9575C14.8862 14.1925 14.7566 14.4067 14.5839 14.5833C14.4111 14.76 14.1999 14.8944 13.9667 14.976L12.8027 15.3555C12.6265 15.4168 12.467 15.5183 12.3369 15.6519C12.2067 15.7856 12.1096 15.9478 12.0531 16.1256C11.9966 16.3033 11.9823 16.4918 12.0114 16.6761C12.0405 16.8604 12.1122 17.0353 12.2207 17.187C12.3692 17.397 12.5792 17.5545 12.8207 17.637L13.9652 18.0075C14.2029 18.0877 14.4188 18.2219 14.5958 18.3997C14.7728 18.5775 14.9061 18.7939 14.9852 19.032L15.3647 20.193C15.4468 20.4277 15.5999 20.6311 15.8027 20.775" fill="white"/>
</svg>
