<svg width="95" height="28" viewBox="0 0 95 28" fill="none" xmlns="http://www.w3.org/2000/svg">
<rect y="3.70996" width="23.0496" height="13.5828" rx="6.7914" fill="#FF4602"/>
<rect x="2.05811" y="10.7072" width="23.0496" height="13.5828" rx="6.7914" fill="#1F1F1F"/>
<path d="M35.8134 6.5C35.64 7.22 35.5334 7.95333 35.4934 8.7C35.4667 9.44667 35.4534 10.1933 35.4534 10.94V13.58L39.8734 8.72C40.3534 8.16 40.74 7.68 41.0334 7.28C41.3267 6.86667 41.4934 6.60667 41.5334 6.5H44.7534C44.18 6.99333 43.66 7.46 43.1934 7.9C42.7267 8.32667 42.2734 8.76667 41.8334 9.22L37.8334 13.6L43.0134 19.26C43.4534 19.7133 43.9134 20.16 44.3934 20.6C44.8734 21.04 45.4 21.5067 45.9734 22H42.7534C42.7134 21.8933 42.5667 21.66 42.3134 21.3C42.06 20.9267 41.72 20.5 41.2934 20.02L35.4534 13.64V17.56C35.4534 18.3067 35.4667 19.0533 35.4934 19.8C35.5334 20.5467 35.64 21.28 35.8134 22H33.0934C33.2667 21.28 33.3667 20.5467 33.3934 19.8C33.4334 19.0533 33.4534 18.3067 33.4534 17.56V10.94C33.4534 10.1933 33.4334 9.44667 33.3934 8.7C33.3667 7.95333 33.2667 7.22 33.0934 6.5H35.8134ZM50.8598 22.28C50.1131 22.28 49.4064 22.1333 48.7398 21.84C48.0864 21.5467 47.4998 21.14 46.9798 20.62C46.4731 20.1 46.0731 19.4933 45.7798 18.8C45.4998 18.0933 45.3598 17.3333 45.3598 16.52C45.3598 15.7067 45.4998 14.9467 45.7798 14.24C46.0731 13.5333 46.4731 12.92 46.9798 12.4C47.4864 11.8667 48.0664 11.4533 48.7198 11.16C49.3864 10.8667 50.0931 10.72 50.8398 10.72C51.8398 10.72 52.6798 10.98 53.3598 11.5C54.0398 12.0067 54.5531 12.7 54.8998 13.58C55.2598 14.4467 55.4398 15.4267 55.4398 16.52H47.3198C47.3198 17.28 47.4931 17.98 47.8398 18.62C48.1998 19.2467 48.6798 19.7467 49.2798 20.12C49.8931 20.4933 50.5731 20.68 51.3198 20.68C52.0664 20.68 52.6798 20.5467 53.1598 20.28C53.6531 20.0133 54.0464 19.66 54.3398 19.22L55.0598 19.84C54.9131 20.1333 54.6731 20.4733 54.3398 20.86C54.0198 21.2333 53.5731 21.5667 52.9998 21.86C52.4398 22.14 51.7264 22.28 50.8598 22.28ZM47.4798 15.02H53.3598C53.2131 14.1933 52.9198 13.54 52.4798 13.06C52.0398 12.5667 51.4264 12.32 50.6398 12.32C49.7864 12.32 49.0931 12.5667 48.5598 13.06C48.0264 13.54 47.6664 14.1933 47.4798 15.02ZM62.6516 22.28C62.0916 22.28 61.605 22.2 61.1916 22.04C60.7916 21.88 60.4583 21.6867 60.1916 21.46C59.925 21.22 59.7116 20.9867 59.5516 20.76C59.405 20.5333 59.2983 20.3533 59.2316 20.22H59.1916V22.76C59.1916 23.5067 59.205 24.2533 59.2316 25C59.2716 25.7467 59.3783 26.48 59.5516 27.2H56.9316C57.105 26.48 57.205 25.7467 57.2316 25C57.2716 24.2533 57.2916 23.5067 57.2916 22.76V15.38C57.2916 14.66 57.265 14.0733 57.2116 13.62C57.1583 13.1533 57.0783 12.76 56.9716 12.44C56.865 12.12 56.7183 11.8133 56.5316 11.52V11.4L59.1916 10.84L59.1716 12.48H59.3116C60.005 11.3067 61.0716 10.72 62.5116 10.72C63.485 10.72 64.3516 10.9733 65.1116 11.48C65.8716 11.9733 66.4716 12.66 66.9116 13.54C67.3516 14.4067 67.5716 15.4 67.5716 16.52C67.5716 17.6267 67.3583 18.6133 66.9316 19.48C66.505 20.3467 65.9183 21.0333 65.1716 21.54C64.4383 22.0333 63.5983 22.28 62.6516 22.28ZM59.1916 17.44C59.1916 18.4133 59.465 19.2 60.0116 19.8C60.5583 20.3867 61.2983 20.68 62.2316 20.68C63.2716 20.68 64.0916 20.3067 64.6916 19.56C65.305 18.8133 65.6116 17.8 65.6116 16.52C65.6116 15.24 65.325 14.22 64.7516 13.46C64.1916 12.7 63.4383 12.32 62.4916 12.32C61.785 12.32 61.1916 12.5067 60.7116 12.88C60.2316 13.2533 59.865 13.7267 59.6116 14.3C59.3716 14.8733 59.2316 15.4733 59.1916 16.1V17.44ZM75.3377 11.86L75.0977 13.88H75.0177C74.8044 13.3867 74.4711 13.0067 74.0177 12.74C73.5777 12.46 73.1044 12.32 72.5977 12.32C72.0244 12.32 71.5577 12.4333 71.1977 12.66C70.8511 12.8733 70.6777 13.2133 70.6777 13.68C70.6777 14.1867 70.8844 14.5733 71.2977 14.84C71.7244 15.1067 72.2111 15.3533 72.7577 15.58C73.2377 15.78 73.7177 16.0133 74.1977 16.28C74.6777 16.5333 75.0777 16.88 75.3977 17.32C75.7177 17.7467 75.8777 18.3267 75.8777 19.06C75.8777 19.7533 75.7044 20.34 75.3577 20.82C75.0244 21.3 74.5711 21.6667 73.9977 21.92C73.4377 22.16 72.8177 22.28 72.1377 22.28C71.5644 22.28 71.0511 22.1867 70.5977 22C70.1444 21.8 69.7644 21.5667 69.4577 21.3C69.1644 21.0333 68.9711 20.7933 68.8777 20.58L69.1577 18.36H69.2377C69.2644 18.52 69.3444 18.7333 69.4777 19C69.6244 19.2533 69.8244 19.5067 70.0777 19.76C70.3311 20.0133 70.6311 20.2333 70.9777 20.42C71.3244 20.5933 71.7111 20.68 72.1377 20.68C72.7377 20.68 73.2177 20.5333 73.5777 20.24C73.9511 19.9467 74.1377 19.5333 74.1377 19C74.1377 18.4933 73.9244 18.1 73.4977 17.82C73.0844 17.54 72.5977 17.28 72.0377 17.04C71.5577 16.8267 71.0777 16.6 70.5977 16.36C70.1311 16.1067 69.7377 15.78 69.4177 15.38C69.1111 14.9667 68.9577 14.4333 68.9577 13.78C68.9577 13.0867 69.1177 12.52 69.4377 12.08C69.7711 11.6267 70.2111 11.2867 70.7577 11.06C71.3177 10.8333 71.9377 10.72 72.6177 10.72C73.3644 10.72 73.9577 10.86 74.3977 11.14C74.8511 11.4067 75.1644 11.6467 75.3377 11.86ZM79.0162 6.24L80.6762 7.88L79.0162 9.54L77.3762 7.88L79.0162 6.24ZM78.2762 17.56V15.4C78.2762 14.68 78.2495 14.0933 78.1962 13.64C78.1428 13.1733 78.0628 12.78 77.9562 12.46C77.8495 12.14 77.7028 11.8333 77.5162 11.54V11.42L80.1762 10.86V17.56C80.1762 18.3067 80.1895 19.0533 80.2162 19.8C80.2562 20.5467 80.3628 21.28 80.5362 22H77.9162C78.0895 21.28 78.1895 20.5467 78.2162 19.8C78.2562 19.0533 78.2762 18.3067 78.2762 17.56ZM87.6762 22.28C86.6228 22.28 85.6762 22.0267 84.8362 21.52C84.0095 21.0133 83.3562 20.3267 82.8762 19.46C82.4095 18.58 82.1762 17.6 82.1762 16.52C82.1762 15.4267 82.4095 14.4467 82.8762 13.58C83.3562 12.7 84.0095 12.0067 84.8362 11.5C85.6762 10.98 86.6228 10.72 87.6762 10.72C88.7428 10.72 89.6895 10.98 90.5162 11.5C91.3428 12.0067 91.9962 12.7 92.4762 13.58C92.9562 14.4467 93.1962 15.4267 93.1962 16.52C93.1962 17.6 92.9562 18.58 92.4762 19.46C91.9962 20.3267 91.3428 21.0133 90.5162 21.52C89.6895 22.0267 88.7428 22.28 87.6762 22.28ZM87.6562 20.68C88.3495 20.68 88.9628 20.5067 89.4962 20.16C90.0295 19.8 90.4495 19.3067 90.7562 18.68C91.0762 18.0533 91.2362 17.3333 91.2362 16.52C91.2362 15.6933 91.0762 14.9667 90.7562 14.34C90.4495 13.7 90.0295 13.2067 89.4962 12.86C88.9628 12.5 88.3495 12.32 87.6562 12.32C86.9762 12.32 86.3695 12.5 85.8362 12.86C85.3028 13.22 84.8828 13.7133 84.5762 14.34C84.2828 14.9667 84.1362 15.6933 84.1362 16.52C84.1362 17.3333 84.2828 18.0533 84.5762 18.68C84.8828 19.3067 85.3028 19.8 85.8362 20.16C86.3695 20.5067 86.9762 20.68 87.6562 20.68Z" fill="#1F1F1F"/>
</svg>
